<svg width="12" height="12" viewBox="0 0 12 12" fill="none" xmlns="http://www.w3.org/2000/svg">
    <path fill-rule="evenodd" clip-rule="evenodd"
          d="M2.2107 7.18432C1.89663 7.18432 1.59542 7.05956 1.37334 6.83748C1.15125 6.61539 1.02649 6.31419 1.02649 6.00011C1.02649 5.68604 1.15125 5.38483 1.37334 5.16275C1.59542 4.94067 1.89663 4.8159 2.2107 4.8159C2.52477 4.8159 2.82598 4.94067 3.04806 5.16275C3.27015 5.38483 3.39491 5.68604 3.39491 6.00011C3.39491 6.31419 3.27015 6.61539 3.04806 6.83748C2.82598 7.05956 2.52477 7.18432 2.2107 7.18432ZM6.00017 7.18432C5.6861 7.18432 5.38489 7.05956 5.16281 6.83748C4.94073 6.61539 4.81596 6.31419 4.81596 6.00011C4.81596 5.68604 4.94073 5.38483 5.16281 5.16275C5.38489 4.94067 5.6861 4.8159 6.00017 4.8159C6.31425 4.8159 6.61545 4.94067 6.83754 5.16275C7.05962 5.38483 7.18438 5.68604 7.18438 6.00011C7.18438 6.31419 7.05962 6.61539 6.83754 6.83748C6.61545 7.05956 6.31425 7.18432 6.00017 7.18432ZM9.78965 7.18432C9.47558 7.18432 9.17437 7.05956 8.95228 6.83748C8.7302 6.61539 8.60544 6.31419 8.60544 6.00011C8.60544 5.68604 8.7302 5.38483 8.95228 5.16275C9.17437 4.94067 9.47558 4.8159 9.78965 4.8159C10.1037 4.8159 10.4049 4.94067 10.627 5.16275C10.8491 5.38483 10.9739 5.68604 10.9739 6.00011C10.9739 6.31419 10.8491 6.61539 10.627 6.83748C10.4049 7.05956 10.1037 7.18432 9.78965 7.18432Z"
          fill="black"/>
</svg>
